<?xml version="1.0" encoding="UTF-8" standalone="no"?>
<!-- Created with Inkscape (http://www.inkscape.org/) -->

<svg
   width="291.30627mm"
   height="80.587715mm"
   viewBox="0 0 291.30627 80.587715"
   version="1.1"
   id="svg5"
   xml:space="preserve"
   inkscape:version="1.2.1 (9c6d41e410, 2022-07-14)"
   sodipodi:docname="desenho.svg"
   xmlns:inkscape="http://www.inkscape.org/namespaces/inkscape"
   xmlns:sodipodi="http://sodipodi.sourceforge.net/DTD/sodipodi-0.dtd"
   xmlns="http://www.w3.org/2000/svg"
   xmlns:svg="http://www.w3.org/2000/svg"><sodipodi:namedview
     id="namedview7"
     pagecolor="#ffffff"
     bordercolor="#000000"
     borderopacity="0.25"
     inkscape:showpageshadow="2"
     inkscape:pageopacity="0.0"
     inkscape:pagecheckerboard="0"
     inkscape:deskcolor="#d1d1d1"
     inkscape:document-units="mm"
     showgrid="false"
     inkscape:zoom="0.46769781"
     inkscape:cx="641.43982"
     inkscape:cy="188.15568"
     inkscape:window-width="1366"
     inkscape:window-height="705"
     inkscape:window-x="-8"
     inkscape:window-y="-8"
     inkscape:window-maximized="1"
     inkscape:current-layer="layer1" /><defs
     id="defs2" /><g
     inkscape:label="Camada 1"
     inkscape:groupmode="layer"
     id="layer1"
     transform="translate(68.30522,-98.890383)"><path
       style="fill:#333e68;fill-opacity:1;stroke-width:0.264583"
       d="m 36.734368,172.46667 v -7.01146 h 0.643628 c 0.412925,0 0.704303,0.19116 0.812896,0.53331 l 0.169267,0.53331 0.677995,-0.53331 c 0.878773,-0.69124 3.230581,-0.73245 4.341741,-0.0761 2.30337,1.36064 2.464266,6.69404 0.261093,8.65472 -0.390329,0.34737 -1.092956,0.55036 -2.176158,0.62871 -1.337011,0.0967 -1.72642,0.022 -2.371336,-0.45477 l -0.771626,-0.57049 v 2.65375 2.65376 h -0.79375 -0.79375 z m 5.306322,1.18278 c 0.668637,-0.35784 1.257761,-1.52752 1.338554,-2.65763 0.141528,-1.97972 -0.02204,-2.65864 -0.836814,-3.47342 -0.714481,-0.71448 -0.933085,-0.78955 -1.915525,-0.65777 -1.31523,0.1764 -1.922809,0.81939 -2.172872,2.29949 -0.53144,3.14557 1.453999,5.63069 3.586657,4.48933 z m 105.68639,5.59631 c -1.82826,-0.47198 -2.51354,-1.20292 -2.51354,-2.68101 0,-0.55714 0.24349,-1.07499 0.73797,-1.56947 0.61028,-0.61027 0.72078,-0.91834 0.63857,-1.78034 -0.0688,-0.72159 0.0291,-1.149 0.31816,-1.3889 0.37491,-0.31115 0.35022,-0.42658 -0.2417,-1.13003 -1.21616,-1.44533 -0.7247,-4.30039 0.84962,-4.9358 0.89436,-0.36096 1.6249,-0.41635 4.66109,-0.35339 2.25678,0.0468 2.33073,0.068 2.24896,0.6437 -0.0589,0.41479 -0.2914,0.61937 -0.76668,0.67465 -0.65684,0.0764 -0.67771,0.13268 -0.56281,1.51819 0.0882,1.06378 0.002,1.61787 -0.33063,2.12558 -0.52798,0.80579 -1.88674,1.4346 -3.11228,1.44032 -1.10889,0.005 -1.60701,0.32463 -1.48709,0.9537 0.0818,0.42904 0.41701,0.51677 2.4372,0.63789 2.14829,0.1288 2.39468,0.20127 2.9739,0.87465 1.28173,1.49009 0.59034,3.93467 -1.31801,4.66023 -0.95483,0.36302 -3.62106,0.54539 -4.53273,0.31003 z m 4.43177,-2.17742 c 1.10813,-1.33844 0.27706,-2.08813 -2.3148,-2.08813 -1.78745,0 -1.99102,0.0569 -2.49464,0.69714 -0.64459,0.81946 -0.65625,0.90627 -0.20472,1.52378 0.76091,1.0406 4.11626,0.95174 5.01416,-0.13279 z m -1.14368,-7.28319 c 0.68038,-0.86496 0.69828,-1.70494 0.0533,-2.50146 -0.60541,-0.74766 -2.195,-0.83929 -2.86891,-0.16539 -0.25506,0.25507 -0.44601,0.8587 -0.44601,1.40993 0,1.82615 2.15932,2.65828 3.26163,1.25692 z M 2.0660014,174.64948 c -1.96666093,-0.99353 -2.89823793,-2.89453 -2.90099193,-5.91986 -0.0037,-4.07228 2.21153533,-6.43038 6.05324303,-6.4436 0.9290025,-0.003 2.1337114,0.1274 2.6771311,0.29021 0.956707,0.28664 0.9787388,0.32065 0.6949017,1.07262 -0.2297668,0.60872 -0.4081065,0.74102 -0.8250449,0.61204 -2.4993099,-0.77313 -3.8774107,-0.66678 -5.2390783,0.40431 -1.61544273,1.27071 -2.05380963,5.52693 -0.7568354,7.34836 1.1058473,1.55302 2.4979948,1.96632 5.2655605,1.56324 1.3665465,-0.19904 1.3890625,-0.19134 1.3890625,0.4748 0,0.89451 -0.8181684,1.19319 -3.2684537,1.19319 -1.4563222,0 -2.191504,-0.14166 -3.0894946,-0.59531 z m 8.7921256,-0.0622 c -0.734893,-0.61837 -0.846677,-0.87928 -0.846677,-1.97615 0,-2.17333 1.33106,-3.17626 4.233333,-3.18974 1.612443,-0.007 1.952382,-0.26137 1.726568,-1.28949 -0.29845,-1.35883 -1.775349,-1.74858 -3.65306,-0.96402 -0.832697,0.34792 -0.949722,0.3456 -1.090647,-0.0216 -0.458195,-1.19404 0.474671,-1.69102 3.174159,-1.69102 1.378562,0 1.793473,0.10992 2.407915,0.63793 l 0.742357,0.63793 0.08435,4.25686 0.08435,4.25686 h -0.679664 c -0.503275,0 -0.679665,-0.13733 -0.679665,-0.52916 0,-0.64744 -0.204009,-0.666 -0.854038,-0.0777 -0.321489,0.29095 -1.086101,0.48884 -2.150721,0.55662 -1.487654,0.0947 -1.736067,0.0344 -2.498564,-0.60724 z m 3.87745,-1.04243 c 0.801223,-0.41433 1.36129,-1.40733 1.36129,-2.41355 0,-0.53315 -0.129889,-0.64788 -0.727604,-0.64269 -2.029297,0.0176 -3.770313,0.94455 -3.770313,2.00737 0,0.59812 1.006022,1.4259 1.732931,1.4259 0.371028,0 1.002691,-0.16967 1.403696,-0.37703 z M 20.330201,170.35 v -4.89479 h 0.79375 c 0.626626,0 0.79375,0.11546 0.79375,0.54837 v 0.54837 l 0.69714,-0.54837 c 0.521062,-0.40987 1.080071,-0.54837 2.213277,-0.54837 1.133205,0 1.692214,0.1385 2.213276,0.54837 l 0.69714,0.54837 0.69714,-0.54837 c 0.535806,-0.42147 1.078532,-0.54837 2.345172,-0.54837 1.407605,0 1.745075,0.097 2.313247,0.66522 0.863957,0.86396 0.994442,1.61422 0.994442,5.71785 v 3.40651 h -0.926042 -0.926042 v -3.70416 c 0,-3.35139 -0.0504,-3.75457 -0.529166,-4.23334 -0.583084,-0.58308 -1.595949,-0.68486 -2.421044,-0.24328 -0.946909,0.50677 -1.283123,1.85086 -1.283123,5.12958 v 3.0512 h -0.79375 -0.79375 v -3.53619 c 0,-3.17684 -0.05573,-3.60704 -0.54837,-4.23333 -0.590495,-0.75069 -1.398715,-0.88362 -2.452715,-0.40338 -1.013362,0.46171 -1.232249,1.32821 -1.232249,4.87806 v 3.29484 h -0.926042 -0.926041 z m 27.983864,4.12315 -0.864071,-0.77164 -0.08989,-4.12315 -0.08989,-4.12315 h 0.949788 0.949788 v 3.70417 c 0,3.35139 0.0504,3.75456 0.529167,4.23333 0.813406,0.81341 2.247315,0.70381 3.195352,-0.24423 l 0.773398,-0.7734 v -3.45993 -3.45994 h 0.926042 0.926042 v 4.89479 4.89479 h -0.79375 c -0.615403,0 -0.79375,-0.11802 -0.79375,-0.52527 0,-0.52378 -0.0024,-0.52379 -0.859896,-10e-4 -0.592508,0.36126 -1.331667,0.52459 -2.377075,0.52527 -1.302944,8e-4 -1.639195,-0.10797 -2.38125,-0.77065 z m 9.9177,0.49882 c -0.433866,-0.1744 -0.595313,-0.45687 -0.595313,-1.04157 0,-0.44125 0.02977,-0.80048 0.06615,-0.79829 0.03638,0.002 0.542396,0.17556 1.124479,0.38526 2.141422,0.77148 4.229627,0.25065 4.049951,-1.0101 -0.06024,-0.42269 -0.653148,-0.84703 -2.29684,-1.64383 -1.218602,-0.59073 -2.379461,-1.2981 -2.579687,-1.57192 -0.570638,-0.78039 -0.445823,-2.12432 0.275055,-2.96166 0.616842,-0.7165 0.726684,-0.74236 3.153185,-0.74236 1.382742,0 2.597725,0.0838 2.699962,0.18612 0.102235,0.10236 0.106654,0.50179 0.0098,0.88761 -0.144748,0.57673 -0.279823,0.66912 -0.75938,0.51945 -0.320824,-0.10013 -1.178817,-0.24396 -1.906651,-0.31962 -1.088417,-0.11314 -1.406592,-0.0456 -1.792317,0.38066 -0.826852,0.91366 -0.401198,1.33662 2.582876,2.56653 1.625499,0.66997 2.25257,1.39087 2.25257,2.58964 0,1.30508 -0.343855,1.94373 -1.31762,2.44729 -0.85602,0.44266 -3.981837,0.52246 -4.966235,0.12679 z m 13.163021,-6.24415 v -6.51697 l 2.71198,0.12176 c 4.180874,0.18772 5.491543,1.13239 5.489114,3.95634 -0.0021,2.36855 -1.516345,3.65409 -4.560964,3.87193 l -1.788046,0.12793 v 2.47799 2.47799 h -0.926042 -0.926042 z m 5.272744,-0.4847 c 0.83279,-0.43065 1.077257,-0.8832 1.077257,-1.99416 0,-0.41276 -0.07396,-0.94321 -0.164354,-1.17877 -0.262739,-0.68468 -1.553486,-1.20248 -2.997507,-1.20248 H 73.24687 v 2.38125 2.38125 h 1.336056 c 0.73483,0 1.672902,-0.17419 2.084604,-0.38709 z m 6.620794,6.40546 c -1.422871,-0.95887 -1.958208,-2.13753 -1.949114,-4.2914 0.0085,-2.01612 0.383357,-3.00778 1.54836,-4.09622 0.556567,-0.52 1.045998,-0.67181 2.455116,-0.76154 2.977222,-0.18957 4.489691,1.13021 4.76417,4.15721 0.315148,3.47551 -1.387856,5.58816 -4.504595,5.58816 -1.04466,0 -1.667269,-0.16042 -2.313937,-0.59621 z m 3.528412,-1.01383 c 0.975743,-0.44458 1.511384,-1.59532 1.511384,-3.24698 0,-1.78881 -0.398295,-2.73463 -1.361289,-3.23261 -2.292361,-1.18543 -4.100878,0.52634 -3.873741,3.6665 0.100084,1.38364 0.225333,1.68986 0.959454,2.3458 0.893138,0.79802 1.728411,0.93922 2.764192,0.46729 z M 92.296871,170.35 v -4.89479 h 0.79375 c 0.677545,0 0.79375,0.10028 0.79375,0.68498 v 0.68498 l 0.814051,-0.68498 c 0.640123,-0.53863 1.098955,-0.68498 2.147525,-0.68498 1.253744,0 1.323936,0.0356 1.173938,0.59531 -0.08775,0.32742 -0.161166,0.66935 -0.163153,0.75984 -0.0021,0.0905 -0.491164,0.15173 -1.087061,0.13611 -0.906878,-0.0238 -1.20872,0.11179 -1.852084,0.83184 -0.761471,0.85223 -0.768633,0.89102 -0.768633,4.16337 v 3.30311 h -0.926042 -0.926041 z m 8.443739,4.56244 c -0.861601,-0.67546 -1.035406,-1.4828 -1.035406,-4.80963 v -3.32468 h -0.661458 c -0.90587,0 -0.913506,-0.93771 -0.0095,-1.16461 0.483034,-0.12123 0.725638,-0.43718 0.936241,-1.2193 0.208893,-0.77576 0.421873,-1.05568 0.803233,-1.05568 0.42907,0 0.51897,0.18333 0.51897,1.05834 v 1.05833 h 1.4552 c 1.37584,0 1.45521,0.0361 1.45521,0.66146 0,0.62538 -0.0794,0.66146 -1.45521,0.66146 h -1.4552 v 2.98383 c 0,3.6823 0.28698,4.29756 1.90344,4.08075 0.9966,-0.13367 1.03443,-0.1113 0.95617,0.56531 -0.0762,0.65839 -0.1767,0.7087 -1.5367,0.76901 -0.85492,0.0379 -1.62838,-0.0712 -1.87501,-0.26459 z m 6.6248,-0.26386 c -1.42381,-0.95951 -1.97166,-2.15392 -1.97166,-4.29858 0,-3.49544 1.4588,-4.99958 4.69022,-4.83599 1.60585,0.0813 1.87,0.17751 2.70258,0.98448 2.19803,2.13042 1.8047,6.68554 -0.70966,8.21857 -1.239,0.75543 -3.53848,0.72201 -4.71148,-0.0685 z m 4.01798,-1.47601 c 0.70606,-0.63087 0.85788,-0.98165 0.96052,-2.21931 0.21355,-2.57519 -0.77686,-4.17513 -2.58454,-4.17513 -1.80768,0 -2.79809,1.59994 -2.58454,4.17513 0.10264,1.23766 0.25446,1.58844 0.96052,2.21931 0.52162,0.46606 1.13551,0.74931 1.62402,0.74931 0.48852,0 1.1024,-0.28325 1.62402,-0.74931 z m 8.16082,1.89055 c -0.003,-0.11836 1.09228,-3.04874 2.43308,-6.51195 l 2.43783,-6.29676 0.79937,0.079 c 0.78603,0.0777 0.84033,0.18487 3.25546,6.42457 1.35085,3.49004 2.45609,6.37731 2.45609,6.41615 0,0.0388 -0.40923,0.0706 -0.90941,0.0706 -0.89007,0 -0.92515,-0.0424 -1.65063,-1.99319 l -0.74123,-1.9932 -2.48671,0.075 -2.4867,0.075 -0.70186,1.85209 c -0.6509,1.71763 -0.76351,1.8581 -1.5512,1.93499 -0.46714,0.0456 -0.85148,-0.0139 -0.85409,-0.13229 z m 7.28685,-5.88462 c -0.089,-0.28053 -0.49275,-1.41759 -0.89714,-2.52679 l -0.73527,-2.01675 -0.9406,2.52679 -0.9406,2.52679 h 1.83775 c 1.69438,0 1.82512,-0.0398 1.67586,-0.51004 z m 5.27245,5.73057 c -0.0708,-0.18465 -0.0969,-3.25051 -0.0578,-6.81302 l 0.071,-6.4773 0.8599,-0.0829 0.85989,-0.0829 v 6.89593 6.89593 h -0.80205 c -0.44113,0 -0.86003,-0.15107 -0.93089,-0.33572 z m 6.23613,-0.12771 c -1.17392,-0.5898 -2.01122,-1.84473 -2.23747,-3.3535 -0.3286,-2.19123 0.28317,-4.07585 1.71383,-5.27967 0.69738,-0.58681 1.07847,-0.69298 2.48737,-0.69298 1.28662,0 1.82304,0.12526 2.36623,0.55253 1.01381,0.79746 1.4856,1.8782 1.4856,3.40308 v 1.33606 h -3.175 c -2.69105,0 -3.175,0.0625 -3.175,0.41001 0,0.76413 0.79908,1.9604 1.57884,2.36363 0.96556,0.49931 1.69668,0.50505 3.28908,0.0258 l 1.24785,-0.37555 -0.0813,0.82817 c -0.0959,0.97634 -0.59536,1.17987 -2.99174,1.21906 -1.02919,0.0168 -1.91132,-0.13673 -2.50827,-0.43665 z m 4.10484,-6.085 c -0.39774,-1.60252 -1.965,-2.37688 -3.33101,-1.64581 -0.50345,0.26944 -1.30827,1.55866 -1.30827,2.09569 0,0.17358 0.90369,0.27772 2.40994,0.27772 h 2.40993 z m 13.61697,1.65364 v -4.89479 h 0.66146 c 0.46503,0 0.66146,0.14405 0.66146,0.48507 0,0.7842 0.25373,0.82264 0.98101,0.14862 0.52611,-0.48759 0.97987,-0.63369 1.96804,-0.63369 1.26055,0 1.28428,0.0152 1.28428,0.82243 0,0.74441 -0.0625,0.80674 -0.65923,0.65698 -1.02912,-0.25829 -2.36257,0.44149 -2.86705,1.50459 -0.33098,0.69749 -0.44247,1.67233 -0.44247,3.86901 v 2.93657 h -0.79375 -0.79375 z m 8.66293,4.3063 c -1.49533,-0.8667 -2.15056,-2.41625 -1.98719,-4.69952 0.14749,-2.06128 0.8659,-3.48952 2.06792,-4.11111 0.98919,-0.51153 3.24389,-0.49883 4.25486,0.024 0.98383,0.50876 1.80436,2.2078 1.81234,3.75277 l 0.006,1.12447 h -3.175 -3.175 v 0.65728 c 0,0.36151 0.32742,1.0237 0.72761,1.47155 0.89686,1.00368 2.35345,1.26396 3.95896,0.70744 1.23631,-0.42854 1.39885,-0.37169 1.39885,0.48923 0,0.77152 -1.13328,1.17442 -3.28063,1.16634 -1.16924,-0.004 -1.88825,-0.16494 -2.60853,-0.58242 z m 4.30166,-5.90582 c 0,-0.94601 -1.10577,-1.97235 -2.12499,-1.97235 -0.97046,0 -2.37293,1.23898 -2.37293,2.09631 0,0.51321 0.14863,0.54952 2.24896,0.54952 2.23321,0 2.24896,-0.005 2.24896,-0.67348 z m -235.999034,5.71796 c -0.168757,-0.31533 -0.273892,-3.16574 -0.273892,-7.42573 0,-4.25999 0.105135,-7.1104 0.273892,-7.42573 0.260872,-0.48744 0.629407,-0.51177 7.752292,-0.51177 5.463755,0 7.563933,0.0855 7.7959,0.3175 0.452788,0.45279 0.452788,14.78721 0,15.24 -0.231967,0.23197 -2.332145,0.3175 -7.7959,0.3175 -7.122885,0 -7.49142,-0.0243 -7.752292,-0.51177 z m 19.896451,0.29111 c -0.260189,-0.16516 -0.319192,-1.91959 -0.264583,-7.8673 l 0.07028,-7.65475 h 7.805209 7.805208 l 0.07032,7.50848 c 0.04982,5.3188 -0.01751,7.61431 -0.230833,7.87136 -0.242012,0.2916 -1.736799,0.36207 -7.610949,0.35882 -4.020386,-0.002 -7.460482,-0.0997 -7.644658,-0.21661 z m 46.24007547,-25.87478 v -6.51628 l 2.86987223,0.11824 c 4.1060266,0.16918 5.3193556,0.98915 5.3283117,3.60089 0.00492,1.43672 -0.5765298,2.57494 -1.5806475,3.09419 l -0.7818411,0.4043 1.4108934,2.32678 c 2.2761259,3.75367 2.1988279,3.48815 1.0154868,3.48815 -1.0097321,0 -1.0278428,-0.0188 -2.5474324,-2.64583 l -1.530469,-2.64583 H 2.1816613 1.0156161 v 2.64583 2.64583 h -0.92604163 -0.926042 z m 5.69831043,-0.96564 c 0.9248458,-0.79552 1.0125049,-2.32903 0.1806787,-3.16086 -0.4421003,-0.4421 -0.9778603,-0.60181 -2.3015708,-0.68609 l -1.7253347,-0.10986 v 2.27978 2.27978 H 2.588363 c 1.2552892,0 1.7141877,-0.12167 2.2734799,-0.60275 z m 4.8850236,2.58712 v -4.89479 h 0.9260415 0.926042 v 4.89479 4.89479 H 10.672908 9.7468665 Z m 6.1491445,4.36706 c -3.034014,-1.84986 -2.727577,-7.80343 0.465439,-9.04265 0.363803,-0.1412 1.28849,-0.25678 2.054858,-0.25686 2.621648,-2.6e-4 4.024807,1.49879 4.220247,4.50866 0.209672,3.22909 -1.518462,5.31952 -4.396002,5.31759 -1.011949,-7.9e-4 -1.755823,-0.1678 -2.344542,-0.52674 z m 3.482949,-1.09643 c 1.43986,-0.65604 2.003785,-3.99652 0.962872,-5.70367 -0.656021,-1.0759 -2.038073,-1.40604 -3.322331,-0.79362 -1.092586,0.52102 -1.558489,1.80427 -1.390505,3.82993 0.102635,1.23766 0.254453,1.58843 0.96052,2.2193 0.895668,0.80028 1.724287,0.93338 2.789444,0.44806 z m 12.987513,1.14801 c -2.339134,-1.10078 -3.501901,-3.52996 -3.241641,-6.77224 0.221054,-2.75388 1.574652,-4.64364 3.878705,-5.41507 1.154808,-0.38664 4.305609,-0.38797 5.592683,-0.002 0.960771,0.28786 0.987248,0.32733 0.724723,1.08041 -0.218467,0.62669 -0.383839,0.74979 -0.834216,0.62095 -3.061605,-0.87583 -4.443301,-0.74382 -6.00964,0.57416 -1.106998,0.93148 -1.563552,2.09239 -1.563552,3.97573 0,3.24995 1.649544,4.94881 4.777332,4.92017 0.969794,-0.009 1.898971,-0.10002 2.06484,-0.20253 0.17521,-0.10826 0.301578,-0.90045 0.301578,-1.89054 v -1.70417 h -1.455209 c -1.440508,0 -1.455208,-0.008 -1.455208,-0.79375 v -0.79375 h 2.248959 2.248958 v 3.14669 c 0,2.74682 -0.05884,3.17126 -0.463021,3.34 -0.254661,0.10632 -1.653646,0.24329 -3.108854,0.30437 -2.199278,0.0923 -2.824838,0.0268 -3.706437,-0.38805 z m 9.924145,-4.41864 v -4.89479 h 0.656418 c 0.481069,0 0.701162,0.17827 0.823916,0.66737 l 0.167499,0.66737 0.638382,-0.63838 c 0.644088,-0.64409 1.580361,-0.90526 2.674723,-0.74612 0.46777,0.068 0.595313,0.25882 0.595313,0.8906 0,0.72875 -0.06288,0.78825 -0.671621,0.63546 -0.827276,-0.20763 -2.233452,0.42112 -2.763356,1.2356 -0.269381,0.41405 -0.417947,1.58257 -0.487776,3.83654 l -0.100409,3.24114 h -0.766546 -0.766543 z m 7.618583,4.48507 c -0.80794,-0.43857 -1.349378,-1.93115 -1.09324,-3.01374 0.344871,-1.45764 1.847707,-2.39459 3.851055,-2.40098 1.921087,-0.006 2.389749,-0.22535 2.190346,-1.02457 -0.393187,-1.57593 -1.774288,-2.04378 -3.681191,-1.24703 -0.852704,0.35629 -0.898837,0.34472 -1.192033,-0.29877 -0.353978,-0.7769 -0.405415,-0.70173 0.746483,-1.09091 1.135861,-0.38376 3.860853,-0.39449 4.564375,-0.018 0.997235,0.53371 1.283123,1.82398 1.283123,5.79104 v 3.71267 h -0.6306 c -0.411845,0 -0.679479,-0.18691 -0.771501,-0.5388 l -0.140901,-0.53881 -0.882145,0.53782 c -1.054751,0.64305 -3.178797,0.70815 -4.243771,0.13007 z m 4.00736,-1.6408 c 0.492607,-0.45579 0.853972,-1.11351 0.967325,-1.76064 l 0.180949,-1.03303 -1.542897,0.15924 c -1.773336,0.18303 -2.859577,0.85459 -2.978195,1.84127 -0.179927,1.49665 2.046618,2.02025 3.372818,0.79316 z m 5.307391,-2.84427 v -4.89479 h 0.686229 c 0.458187,0 0.731129,0.1717 0.821346,0.51669 0.133281,0.50967 0.144942,0.50942 0.859534,-0.0189 0.990528,-0.73234 3.518641,-0.7486 4.489794,-0.0289 1.042683,0.77273 1.313817,1.95794 1.330248,5.81495 l 0.01493,3.50572 H 66.499991 65.57395 v -3.70416 c 0,-3.35139 -0.0504,-3.75457 -0.529167,-4.23334 -0.969701,-0.9697 -3.087442,-0.53939 -3.724505,0.75678 -0.200901,0.40876 -0.388888,2.04268 -0.453258,3.93958 l -0.109982,3.24114 h -0.766543 -0.766543 z m 11.831429,4.11601 c -1.224425,-1.07506 -1.591847,-2.23837 -1.469874,-4.65383 0.104474,-2.06885 0.493924,-2.88561 1.863471,-3.90813 0.975289,-0.72816 3.183184,-0.69785 4.20515,0.0577 l 0.767742,0.56761 v -2.52146 -2.52146 h 0.79375 0.79375 v 6.87917 6.87916 h -0.643628 c -0.418814,0 -0.704435,-0.19158 -0.817713,-0.54849 -0.167566,-0.52795 -0.193559,-0.53086 -0.694265,-0.0777 -0.34567,0.31283 -1.078245,0.5063 -2.18368,0.57668 -1.559507,0.0993 -1.722964,0.0537 -2.614703,-0.72924 z m 4.046988,-0.94278 c 0.986285,-0.51002 1.437965,-2.05162 1.187791,-4.05394 -0.224202,-1.79445 -1.00892,-2.69116 -2.355051,-2.69116 -1.860084,0 -2.993334,1.93481 -2.630487,4.49105 0.310478,2.18732 1.994249,3.18668 3.797747,2.25405 z m 7.462645,1.28154 c -1.437712,-0.70862 -2.024693,-1.8001 -2.134193,-3.96851 -0.112374,-2.22532 0.226486,-3.44365 1.222687,-4.39599 1.41541,-1.35311 4.227042,-1.38999 5.601179,-0.0735 0.744403,0.71319 1.338017,2.35626 1.338017,3.70351 v 0.67659 h -3.335976 -3.335975 l 0.178893,0.7276 c 0.50392,2.04957 2.1014,2.79947 4.525978,2.12463 l 1.466761,-0.40826 -0.08057,0.81814 c -0.06039,0.61317 -0.246284,0.86384 -0.742029,1.00059 -1.254273,0.34599 -3.813276,0.23459 -4.704773,-0.20481 z m 4.175606,-5.79082 c 0,-0.63673 -0.726929,-1.88898 -1.202478,-2.07147 -0.654548,-0.25117 -1.683078,-0.19627 -2.276898,0.12153 -0.440952,0.23599 -1.283124,1.69252 -1.283124,2.21916 0,0.0774 1.071563,0.14079 2.38125,0.14079 1.974194,0 2.38125,-0.0701 2.38125,-0.41001 z m 9.868575,5.71239 c -1.331775,-0.81203 -1.790819,-1.93116 -1.795086,-4.37634 -0.004,-2.31667 0.443505,-3.45796 1.732827,-4.41888 0.858473,-0.63981 3.034213,-0.69047 4.181154,-0.0974 l 0.8292,0.42879 v -2.38804 -2.38805 h 0.79375 0.79375 v 6.87917 6.87916 h -0.66146 c -0.48507,0 -0.66146,-0.14111 -0.66146,-0.52916 0,-0.29104 -0.0705,-0.52917 -0.1567,-0.52917 -0.0862,0 -0.45944,0.23813 -0.82944,0.52917 -0.90658,0.71312 -3.065575,0.71859 -4.226535,0.0107 z m 3.462985,-1.05768 c 0.91208,-0.34677 1.48511,-1.57444 1.48511,-3.18173 0,-2.39111 -0.89304,-3.7088 -2.513544,-3.7088 -1.631392,0 -2.513542,1.25358 -2.513542,3.57187 0,2.79027 1.423567,4.12408 3.541976,3.31866 z m 7.57712,1.10116 c -2.79255,-1.53929 -2.84569,-7.27892 -0.0821,-8.86443 1.13557,-0.65149 3.51381,-0.65461 4.62123,-0.006 1.5099,0.88425 1.92781,1.74168 2.0174,4.13914 0.0899,2.40499 -0.3216,3.54571 -1.6319,4.52399 -1.02749,0.76713 -3.70462,0.87986 -4.92465,0.20736 z m 3.89445,-1.43045 c 1.05888,-0.87811 1.42616,-3.2141 0.75711,-4.81537 -1.08625,-2.59976 -4.3128,-2.22287 -4.93989,0.57703 -0.3994,1.78323 0.19994,3.81258 1.31045,4.43714 0.77289,0.43468 2.23006,0.33383 2.87233,-0.1988 z m 9.85729,1.67021 c -0.50798,-0.14012 -0.68111,-0.38508 -0.74614,-1.05567 -0.0719,-0.74166 -0.0121,-0.85038 0.39688,-0.72167 3.27759,1.03139 5.90551,0.39865 5.90551,-1.42192 0,-0.9449 -0.83663,-1.66629 -2.89602,-2.4971 -0.93796,-0.37839 -1.9811,-0.94701 -2.31807,-1.26358 -1.47667,-1.38725 -1.25929,-4.03131 0.42457,-5.16444 0.74003,-0.498 1.23135,-0.60032 2.77812,-0.57862 2.38704,0.0335 3.18418,0.25549 3.26968,0.91052 0.13448,1.03016 -0.24084,1.1874 -1.76659,0.74014 -2.48318,-0.72792 -4.34641,0.30494 -3.88273,2.15238 0.14117,0.56248 0.64274,0.91096 2.6562,1.84547 2.889,1.34088 3.46442,1.99487 3.43532,3.9044 -0.0219,1.43998 -0.71185,2.4076 -2.15501,3.02253 -0.87815,0.37417 -3.93099,0.45051 -5.10172,0.12756 z m 10.61425,-0.19624 c -1.08642,-0.76096 -1.35384,-1.90222 -1.35384,-5.77776 v -3.58037 h 0.92605 0.92604 v 3.6536 c 0,4.35296 0.13696,4.68078 1.95569,4.68078 2.18277,0 2.75849,-1.24162 2.79104,-6.01928 l 0.0158,-2.3151 h 0.79375 0.79375 v 4.89479 4.89479 h -0.68623 c -0.45494,0 -0.73115,-0.17176 -0.8195,-0.50962 -0.1315,-0.50287 -0.1443,-0.50289 -0.96742,-0.001 -1.06749,0.65091 -3.49606,0.69485 -4.3751,0.0791 z m 9.49408,-6.44771 v -6.87917 h 0.92604 0.92604 v 6.87917 6.87916 h -0.92604 -0.92604 z m -208.482364,6.10281 c -0.168757,-0.31533 -0.273892,-3.16574 -0.273892,-7.42573 0,-4.25999 0.105135,-7.1104 0.273892,-7.42573 0.260872,-0.48744 0.629407,-0.51177 7.752292,-0.51177 5.463755,0 7.563933,0.0855 7.7959,0.3175 0.452788,0.45279 0.452788,14.78721 0,15.24 -0.231967,0.23197 -2.332145,0.3175 -7.7959,0.3175 -7.122885,0 -7.49142,-0.0243 -7.752292,-0.51177 z m 19.746247,0.33538 c -0.09701,-0.097 -0.176389,-3.59662 -0.176389,-7.7769 0,-6.6866 0.05032,-7.61982 0.418515,-7.76111 0.546162,-0.20958 14.49181,-0.20958 15.037971,0 0.368221,0.1413 0.418515,1.0759 0.418515,7.7769 0,6.701 -0.05029,7.6356 -0.418515,7.7769 -0.572262,0.2196 -15.05968,0.20463 -15.280097,-0.0158 z m 19.52254,-0.15773 c -0.07052,-0.18377 -0.09655,-3.72588 -0.05784,-7.87136 l 0.07037,-7.53723 7.508481,-0.0703 c 5.3188,-0.0498 7.614304,0.0175 7.871354,0.23083 0.494626,0.41051 0.537316,14.77276 0.04537,15.2647 -0.469265,0.46927 -15.257397,0.45334 -15.43774,-0.0166 z M 10.034132,143.919 c -0.1803369,-0.21729 -0.28898,-0.66952 -0.2414292,-1.00496 0.068334,-0.48203 0.2528362,-0.60987 0.8802052,-0.60987 0.730753,0 0.79375,0.0735 0.79375,0.92604 0,0.73739 -0.112517,0.94212 -0.55232,1.00496 -0.303774,0.0434 -0.699868,-0.0989 -0.880206,-0.31617 z m 15.984611,-7.42657 c -0.727605,-0.21044 -1.412214,-0.38787 -1.521355,-0.39429 -0.10914,-0.006 -0.198437,-0.83978 -0.198437,-1.85191 v -1.84022 l 1.725832,0.6496 c 2.876921,1.08287 5.417918,0.71964 5.417918,-0.77449 0,-0.78079 -0.811551,-1.50408 -2.804845,-2.49984 -3.146068,-1.57162 -4.074322,-2.77553 -4.074322,-5.28422 0,-1.94475 0.693508,-3.10078 2.383386,-3.97296 1.043688,-0.53867 1.47861,-0.601 3.56974,-0.51162 1.621795,0.0693 2.731262,0.26495 3.478704,0.6134 l 1.097455,0.51162 -0.545039,1.40871 c -0.465664,1.20355 -0.625488,1.38562 -1.097455,1.2502 -3.635131,-1.04296 -4.500713,-1.01183 -5.173848,0.18612 -0.35239,0.62713 -0.34128,0.74242 0.120732,1.25294 0.279858,0.30924 1.407002,1.02997 2.504766,1.60163 2.327339,1.21197 3.366677,2.10342 3.87736,3.32566 0.905092,2.16618 0.01006,4.8063 -2.00288,5.90789 -1.472459,0.80581 -4.727443,1.00897 -6.757712,0.42178 z m 49.802115,0.0367 c -1.355225,-0.42155 -2.730675,-1.57519 -3.368373,-2.82519 -0.484011,-0.94873 -0.528532,-1.56064 -0.528532,-7.26425 v -6.22825 h 1.852083 1.852084 v 5.67132 c 0,3.11922 0.113948,5.97102 0.253217,6.33732 0.504438,1.32678 2.912142,1.91415 4.493736,1.09627 1.174113,-0.60715 1.338464,-1.53891 1.338464,-7.58814 v -5.51677 h 1.852083 1.852084 v 5.85628 c 0,6.64657 -0.160841,7.53373 -1.632715,9.0056 -1.621777,1.62178 -5.280467,2.29057 -7.964131,1.45581 z m 30.755412,-0.0553 c -1.6543,-0.50997 -3.23151,-1.94 -3.98926,-3.61701 -0.55444,-1.22704 -0.63285,-1.79394 -0.63285,-4.57557 0,-3.59001 0.39322,-4.86109 1.98109,-6.40388 1.42262,-1.38222 2.51479,-1.77663 5.21713,-1.884 2.97572,-0.11823 4.61773,0.35295 6.0385,1.73279 1.70973,1.66047 2.10911,2.90175 2.10911,6.55509 0,2.78163 -0.0784,3.34853 -0.63284,4.57557 -0.77855,1.72304 -2.34574,3.11152 -4.09997,3.63248 -1.62674,0.48309 -4.39682,0.47593 -5.99091,-0.0155 z m 5.56409,-3.69441 c 1.04971,-1.00569 1.43255,-2.25356 1.42059,-4.63046 -0.008,-1.50484 -0.14925,-2.25517 -0.58627,-3.10498 -1.02215,-1.98762 -2.83805,-2.6124 -4.91833,-1.6922 -1.01407,0.44857 -1.32585,0.76398 -1.7895,1.8103 -0.99347,2.24195 -0.74892,5.74735 0.50491,7.23744 0.91728,1.09012 1.51663,1.31825 3.1919,1.21493 1.10183,-0.068 1.55918,-0.24341 2.1767,-0.83503 z M -0.83646753,128.41354 v -8.20208 H 1.0156161 2.8676995 v 8.20208 8.20209 H 1.0156161 -0.83646753 Z m 7.40833383,0 v -8.20208 h 2.3725956 2.3725931 l 1.428504,2.4474 c 0.785677,1.34606 2.315953,3.96575 3.400616,5.82153 l 1.972111,3.37413 -0.119205,-5.82153 -0.119203,-5.82153 h 1.754328 1.754328 v 8.20208 8.20209 h -2.350815 -2.350815 l -1.993358,-3.50573 c -1.096346,-1.92815 -2.628091,-4.59145 -3.403873,-5.91843 l -1.4105149,-2.41271 0.088151,5.91843 0.088151,5.91844 H 8.3136635 6.5718663 Z m 34.1312517,1.45521 v -6.74687 H 38.45416 36.205201 v -1.45521 -1.45521 h 6.350001 6.35 v 1.45521 1.45521 h -2.248958 -2.248959 v 6.74687 6.74688 h -1.852083 -1.852084 z m 10.318751,-1.45521 v -8.20208 h 1.852083 1.852084 v 8.20208 8.20209 h -1.852084 -1.852083 z m 10.583334,1.45521 v -6.74687 h -2.248959 -2.248958 v -1.45521 -1.45521 h 6.217708 6.217709 v 1.45521 1.45521 h -2.116667 -2.116667 v 6.74687 6.74688 h -1.852083 -1.852083 z m 30.427084,0 v -6.74687 H 89.783329 87.53437 v -1.45521 -1.45521 h 6.350001 6.349999 v 1.45521 1.45521 h -2.248958 -2.248958 v 6.74687 6.74688 h -1.852083 -1.852084 z m 34.660413,-1.45521 v -8.20208 h 4.7625 4.7625 v 1.45521 1.45521 h -2.91041 -2.91042 v 1.98437 1.98438 h 2.64583 2.64584 v 1.5875 1.5875 h -2.64584 -2.64583 v 3.175 3.175 h -1.85208 -1.85209 z m 12.43542,0 v -8.20208 h 4.89479 4.89479 v 1.45521 1.45521 h -3.0427 -3.04271 v 1.71979 1.71979 h 2.77812 2.77813 v 1.45521 1.45521 h -2.77813 -2.77812 v 1.98437 1.98438 h 3.04271 3.0427 v 1.5875 1.5875 h -4.89479 -4.89479 z m 12.96458,0.0243 v -8.22635 h 3.65615 c 4.39109,0 5.81934,0.34996 7.51313,1.84089 1.71892,1.51305 2.41337,3.25676 2.42805,6.09661 0.0201,3.8984 -1.13143,6.04503 -4.00136,7.45887 -1.73027,0.8524 -1.88033,0.87789 -5.68657,0.96592 l -3.9094,0.0904 v -8.22635 z m 7.35533,4.63108 c 2.31522,-1.20461 3.20899,-4.87912 1.83895,-7.56036 -0.84036,-1.64461 -1.65765,-2.15147 -3.73851,-2.3185 l -1.7516,-0.1406 v 5.1956 5.1956 h 1.46835 c 0.80759,0 1.78986,-0.16728 2.18281,-0.37174 z m 9.57801,-4.65535 v -8.20208 h 4.7625 4.7625 v 1.45521 1.45521 h -2.91042 -2.91041 v 1.71979 1.71979 h 2.64583 2.64583 v 1.45521 1.45521 h -2.64583 -2.64583 v 1.98437 1.98438 h 2.91041 2.91042 v 1.5875 1.5875 h -4.7625 -4.7625 z m 12.7,0 v -8.20208 l 3.77031,0.0116 c 4.91189,0.0151 6.2225,0.46546 7.27972,2.50131 0.53935,1.03864 0.53076,3.47709 -0.0161,4.53014 -0.23569,0.45395 -0.85905,1.17072 -1.38522,1.59284 l -0.95669,0.76748 2.04322,3.03737 c 1.12377,1.67056 2.12736,3.13325 2.23023,3.25043 0.10287,0.11717 0.97033,-2.02595 1.9277,-4.7625 0.9574,-2.73656 2.23716,-6.37454 2.84398,-8.08441 l 1.10326,-3.10885 h 2.19313 c 1.74091,0 2.2257,0.0849 2.35117,0.41189 0.0869,0.22655 1.35096,3.79166 2.80897,7.92248 1.45802,4.13082 2.72408,7.70121 2.81348,7.9342 0.142,0.37006 -0.0998,0.41377 -1.91275,0.34575 l -2.07534,-0.0779 -0.55502,-1.85209 -0.55504,-1.85208 h -2.87044 -2.87044 l -0.54753,1.91823 -0.54755,1.91823 -3.97248,-1.6e-4 -3.97251,-1.6e-4 -1.9411,-3.17484 c -1.76448,-2.88613 -2.01109,-3.17484 -2.71187,-3.17484 h -0.77088 v 3.175 3.175 h -1.85209 -1.85208 z m 23.01441,1.25678 c -0.003,-0.0364 -0.4491,-1.47617 -0.99272,-3.19952 l -0.98837,-3.13337 -0.95338,3.19952 -0.95337,3.19951 h 1.94609 c 1.07035,0 1.94413,-0.0298 1.94175,-0.0661 z m -16.69831,-2.60752 c 0.96872,-0.3377 1.35682,-0.92846 1.35682,-2.06535 0,-1.03418 -0.89864,-1.6479 -2.66088,-1.81723 l -1.30787,-0.12567 v 2.15033 2.15033 h 0.88656 c 0.4876,0 1.26402,-0.13158 1.72537,-0.29241 z m 24.64015,1.35074 v -8.20208 h 1.85208 1.85209 v 6.61458 6.61459 h 3.30729 3.30729 v 1.5875 1.5875 h -5.15937 -5.15938 z m -279.655284,6.3674 c -0.169032,-0.31584 -0.273892,-3.19556 -0.273892,-7.52173 0,-6.01991 0.05872,-7.06867 0.415774,-7.42572 0.357983,-0.35798 1.435507,-0.41577 7.752292,-0.41577 5.353402,0 7.42234,0.0858 7.654018,0.3175 0.452788,0.45278 0.452788,14.7872 0,15.23999 -0.231967,0.23197 -2.332145,0.3175 -7.7959,0.3175 -7.122885,0 -7.49142,-0.0243 -7.752292,-0.51177 z m 19.750168,0.3393 c -0.09917,-0.0992 -0.18031,-3.60054 -0.18031,-7.78082 0,-6.6866 0.05032,-7.61982 0.418515,-7.7611 0.230183,-0.0883 3.668417,-0.1606 7.64052,-0.1606 5.796026,0 7.281468,0.0716 7.523165,0.36287 0.213331,0.25704 0.280649,2.55255 0.230833,7.87135 l -0.07032,7.50848 -7.691046,0.0701 c -4.230074,0.0385 -7.772184,-0.0111 -7.871353,-0.11025 z m -14.892122,-18.19445 c -2.459952,-0.76994 -4.919996,-3.19006 -5.78505,-5.69117 -0.222872,-0.64439 -0.405222,-2.03891 -0.405222,-3.09893 0,-2.55864 0.71749,-4.44201 2.388954,-6.27085 3.883277,-4.248934 10.706569,-3.895004 14.193521,0.73621 1.272491,1.69007 1.809411,3.42341 1.783093,5.75637 -0.0195,1.72825 -0.150916,2.29649 -0.867985,3.75306 -1.036632,2.1057 -2.944362,3.89577 -4.952597,4.64715 -1.681045,0.62896 -4.632877,0.70707 -6.354714,0.16816 z m 14.833043,-1.27798 c -0.0714,-0.18607 -0.09812,-3.67045 -0.05938,-7.74307 l 0.07044,-7.40476 h 7.805209 7.805208 v 7.67291 7.67292 l -7.745828,0.0701 c -6.096413,0.0552 -7.773474,-0.002 -7.87565,-0.26815 z m 19.638245,0.15782 c -0.09917,-0.0992 -0.180308,-3.61505 -0.180308,-7.81306 v -7.63276 l 7.871354,0.0701 7.871355,0.0701 v 7.67292 7.67292 l -7.691046,0.0701 c -4.230074,0.0385 -7.772184,-0.0111 -7.871355,-0.11025 z"
       id="path302" /></g></svg>
